<svg width="20" height="10" viewBox="0 0 20 10" fill="none" xmlns="http://www.w3.org/2000/svg">
<path d="M4.64844 6.17188C4.98698 6.51042 5.3776 6.67969 5.82031 6.67969C6.26302 6.67969 6.65365 6.51042 6.99219 6.17188C7.33073 5.83333 7.5 5.44271 7.5 5C7.5 4.55729 7.33073 4.16667 6.99219 3.82812C6.65365 3.48958 6.26302 3.32031 5.82031 3.32031C5.3776 3.32031 4.98698 3.48958 4.64844 3.82812C4.33594 4.16667 4.17969 4.55729 4.17969 5C4.17969 5.44271 4.33594 5.83333 4.64844 6.17188ZM10.5469 3.32031H19.1797V6.67969H17.5V10H14.1797V6.67969H10.5469C10.2083 7.59115 9.57031 8.3724 8.63281 9.02344C7.72135 9.67448 6.78385 10 5.82031 10C4.4401 10 3.25521 9.51823 2.26562 8.55469C1.30208 7.5651 0.820312 6.38021 0.820312 5C0.820312 3.61979 1.30208 2.44792 2.26562 1.48438C3.25521 0.494792 4.4401 0 5.82031 0C6.78385 0 7.72135 0.325521 8.63281 0.976562C9.57031 1.6276 10.2083 2.40885 10.5469 3.32031Z" fill="#333333"/>
</svg>
